# xmcd CD database file
#
# Track frame offsets:
#	150
#	26522
#	61693
#	86679
#	113548
#	138910
#	163456
#	191201
#
# Disc length: 2822 seconds
#
# Revision: 0
# Processed by: cddbd v1.5.1PL0 Copyright (c) Steve Scherf et al.
# Submitted via: CDex 1.51
#
DISCID=660b0408
DTITLE=Fiebre Latina - Fiebre Latina
DYEAR=2001
DGENRE=Jazz
TTITLE0=reflejos
TTITLE1=tres
TTITLE2=o sea
TTITLE3=engañado
TTITLE4=fiebre latina
TTITLE5=recordando mi futuro
TTITLE6=patricia
TTITLE7=raìces
EXTD=YEAR: 2001
EXTT0=
EXTT1=
EXTT2=
EXTT3=
EXTT4=
EXTT5=
EXTT6=
EXTT7=
PLAYORDER=
